<svg
 xmlns="http://www.w3.org/2000/svg"
 xmlns:xlink="http://www.w3.org/1999/xlink"
 width="1.517cm" height="1.411cm">
<defs>
<filter id="Filter_0">
    <feFlood flood-color="rgb(245, 235, 235)" flood-opacity="1" result="floodOut" />
    <feComposite operator="atop" in="floodOut" in2="SourceGraphic" result="compOut" />
    <feBlend mode="normal" in="compOut" in2="SourceGraphic" />
</filter>

</defs>
<g filter="url(#Filter_0)">
<path fill-rule="evenodd"  fill="rgb(0, 0, 0)"
 d="M36.603,39.225 L6.344,39.225 C2.845,39.225 -0.000,36.773 -0.000,33.761 L-0.000,7.697 C-0.000,4.685 2.845,2.234 6.341,2.234 L7.257,2.234 L7.257,1.801 C7.257,1.162 7.858,0.645 8.599,0.645 C9.339,0.645 9.941,1.162 9.941,1.801 L9.941,2.234 L12.406,2.234 L12.406,1.801 C12.406,1.162 13.007,0.645 13.748,0.645 C14.489,0.645 15.090,1.162 15.090,1.801 L15.090,2.234 L17.556,2.234 L17.556,1.801 C17.556,1.162 18.157,0.645 18.898,0.645 C19.638,0.645 20.240,1.162 20.240,1.801 L20.240,2.234 L22.705,2.234 L22.705,1.801 C22.705,1.162 23.307,0.645 24.047,0.645 C24.789,0.645 25.389,1.162 25.389,1.801 L25.389,2.234 L27.855,2.234 L27.855,1.801 C27.855,1.162 28.456,0.645 29.197,0.645 C29.937,0.645 30.539,1.162 30.539,1.801 L30.539,2.234 L33.004,2.234 L33.004,1.801 C33.004,1.162 33.606,0.645 34.346,0.645 C35.088,0.645 35.688,1.162 35.688,1.801 L35.688,2.234 L36.603,2.234 C40.101,2.234 42.946,4.685 42.948,7.697 L42.948,33.761 C42.948,36.775 40.101,39.225 36.603,39.225 ZM9.271,1.801 C9.271,1.482 8.971,1.223 8.600,1.223 C8.229,1.223 7.929,1.482 7.929,1.801 L7.929,9.294 C7.929,9.613 8.229,9.872 8.600,9.872 C8.971,9.872 9.271,9.613 9.271,9.294 L9.271,1.801 ZM14.421,1.801 C14.421,1.482 14.120,1.223 13.750,1.223 C13.379,1.223 13.079,1.482 13.079,1.801 L13.079,9.294 C13.079,9.613 13.379,9.872 13.750,9.872 C14.120,9.872 14.421,9.613 14.421,9.294 L14.421,1.801 ZM19.570,1.801 C19.570,1.482 19.269,1.223 18.899,1.223 C18.529,1.223 18.228,1.482 18.228,1.801 L18.228,9.294 C18.228,9.613 18.529,9.872 18.899,9.872 C19.269,9.872 19.570,9.613 19.570,9.294 L19.570,1.801 ZM24.720,1.801 C24.720,1.482 24.419,1.223 24.048,1.223 C23.678,1.223 23.377,1.482 23.377,1.801 L23.377,9.294 C23.377,9.613 23.678,9.872 24.048,9.872 C24.419,9.872 24.720,9.613 24.720,9.294 L24.720,1.801 ZM29.869,1.801 C29.869,1.482 29.569,1.223 29.198,1.223 C28.828,1.223 28.527,1.482 28.527,1.801 L28.527,9.294 C28.527,9.613 28.828,9.872 29.198,9.872 C29.569,9.872 29.869,9.613 29.869,9.294 L29.869,1.801 ZM35.018,1.801 C35.018,1.482 34.718,1.223 34.347,1.223 C33.976,1.223 33.676,1.482 33.676,1.801 L33.676,9.294 C33.676,9.613 33.976,9.872 34.347,9.872 C34.718,9.872 35.018,9.613 35.018,9.294 L35.018,1.801 ZM39.716,7.697 C39.716,6.220 38.320,5.018 36.606,5.018 L35.691,5.018 L35.691,7.923 C36.147,8.254 36.443,8.742 36.443,9.295 C36.443,10.290 35.505,11.098 34.349,11.098 C33.193,11.098 32.256,10.289 32.256,9.295 C32.256,8.742 32.552,8.253 33.007,7.923 L33.007,5.018 L30.541,5.018 L30.541,7.923 C30.996,8.254 31.292,8.742 31.292,9.295 C31.292,10.290 30.355,11.098 29.199,11.098 C28.045,11.098 27.106,10.289 27.106,9.295 C27.106,8.742 27.402,8.253 27.857,7.923 L27.857,5.018 L25.392,5.018 L25.392,7.923 C25.847,8.254 26.144,8.742 26.144,9.295 C26.144,10.290 25.206,11.098 24.050,11.098 C22.894,11.098 21.956,10.289 21.956,9.295 C21.956,8.742 22.253,8.253 22.708,7.923 L22.708,5.018 L20.242,5.018 L20.242,7.923 C20.697,8.254 20.994,8.742 20.994,9.295 C20.994,10.290 20.056,11.098 18.900,11.098 C17.745,11.098 16.807,10.289 16.807,9.295 C16.807,8.742 17.103,8.253 17.558,7.923 L17.558,5.018 L15.093,5.018 L15.093,7.923 C15.548,8.254 15.845,8.742 15.845,9.295 C15.845,10.290 14.906,11.098 13.751,11.098 C12.595,11.098 11.657,10.289 11.657,9.295 C11.657,8.742 11.954,8.253 12.409,7.923 L12.409,5.018 L9.944,5.018 L9.944,7.923 C10.398,8.254 10.695,8.742 10.695,9.295 C10.695,10.290 9.757,11.098 8.602,11.098 C7.446,11.098 6.508,10.289 6.508,9.295 C6.508,8.742 6.804,8.253 7.259,7.923 L7.259,5.018 L6.344,5.018 C4.629,5.018 3.233,6.220 3.233,7.697 L3.233,33.761 C3.233,35.239 4.629,36.441 6.344,36.441 L36.603,36.441 C38.319,36.441 39.714,35.239 39.714,33.761 L39.716,33.761 L39.716,7.697 ZM30.739,29.187 L36.907,29.187 L36.907,33.910 L30.739,33.910 L30.739,29.187 ZM30.739,22.880 L36.907,22.880 L36.907,27.603 L30.739,27.603 L30.739,22.880 ZM30.739,16.570 L36.907,16.570 L36.907,21.296 L30.739,21.296 L30.739,16.570 ZM22.509,29.187 L28.675,29.187 L28.675,33.910 L22.509,33.910 L22.509,29.187 ZM22.509,22.880 L28.675,22.880 L28.675,27.603 L22.509,27.603 L22.509,22.880 ZM22.509,16.570 L28.675,16.570 L28.675,21.296 L22.509,21.296 L22.509,16.570 ZM14.273,29.187 L20.441,29.187 L20.441,33.910 L14.273,33.910 L14.273,29.187 ZM14.273,22.880 L20.441,22.880 L20.441,27.603 L14.273,27.603 L14.273,22.880 ZM14.273,16.570 L20.441,16.570 L20.441,21.296 L14.273,21.296 L14.273,16.570 ZM6.039,29.187 L12.208,29.187 L12.208,33.910 L6.039,33.910 L6.039,29.187 ZM6.039,22.880 L12.208,22.880 L12.208,27.603 L6.039,27.603 L6.039,22.880 Z"/>
</g>
</svg>
